<svg width="291" height="435" viewBox="0 0 291 435" fill="none" xmlns="http://www.w3.org/2000/svg">
<path d="M286.908 27.5C286.908 27.5 159.636 27.5 85.9082 27.5C12.1803 27.5 3.98832 258.5 85.9082 258.5C167.828 258.5 286.908 258.5 286.908 258.5" stroke="#0A0A26" stroke-width="55"/>
<path d="M265.408 259.5V116.5H95.9082" stroke="#0A0A26" stroke-width="45"/>
<path d="M97.4082 182H208.408" stroke="#2a97a4" stroke-width="25"/>
<path d="M112.908 280C140.408 306.5 152.408 327.5 152.408 327.5C152.408 327.5 167.408 302.5 196.908 280C226.408 257.5 245.908 249 245.908 249H158.408H69.4082C69.4082 249 85.4082 253.5 112.908 280Z" fill="#0A0A26" stroke="#0A0A26" stroke-width="25"/>
<path d="M149.908 400C181.792 350.911 210.523 335.096 286.908 334" stroke="#2a97a4" stroke-width="15"/>
<path d="M149.408 400C180.076 337.978 208.121 307 287.408 307" stroke="#2a97a4" stroke-width="15"/>
<path d="M149.908 404.5C119.352 339.477 91.4082 307 12.4082 307" stroke="#2a97a4" stroke-width="15"/>
<path d="M149.908 400C181.792 373.224 210.523 364.598 286.908 364" stroke="#2a97a4" stroke-width="15"/>
<path d="M150.408 400C118.524 350.911 89.793 335.096 13.4082 334" stroke="#2a97a4" stroke-width="15"/>
<path d="M150.408 400C118.524 373.224 89.793 364.598 13.4082 364" stroke="#2a97a4" stroke-width="15"/>
<path d="M13.5059 401.275C77.9211 387.697 105.452 395.751 151.506 417.923C199.68 392.866 230.075 389.908 288.498 398.423" stroke="#0A0A26" stroke-width="30"/>
</svg>
